<svg width="256" height="256" viewBox="-5 -5 42 42" fill="none" xmlns="http://www.w3.org/2000/svg">
<g clip-path="url(#clip0)">
<path d="M22.3996 2.63135e-06C22.3892 2.62018e-06 22.3787 1.66676e-05 22.3683 4.99444e-05C19.9218 0.00785572 17.6908 0.930784 15.9996 2.44446C14.3012 0.924331 12.0583 0 9.59961 0C4.26625 0 -0.000416667 4.26666 1.38239e-05 9.6C1.38239e-05 9.6 -1.72799e-05 19.1032 1.38239e-05 22.4C6.41423e-05 27.7333 4.31961 32 9.59961 32H18.4C18.8418 32 19.2 31.6418 19.2 31.2V26.4008C19.2 25.9587 18.8413 25.6004 18.3992 25.6008L9.60003 25.6099C7.83271 25.6099 6.40001 24.1699 6.40001 22.4099V9.6C6.40001 7.89334 7.78669 6.4 9.60001 6.4C11.4133 6.4 12.8 7.89334 12.8 9.6V18.4C12.8 18.8418 13.1582 19.2 13.6 19.2L18.4004 19.2C18.8422 19.2 19.2004 18.8418 19.2004 18.4L19.2 9.6C19.2 7.86665 20.5867 6.4 22.4 6.4C24.2667 6.4 25.6 7.94667 25.6 9.6C25.6 9.82504 25.5998 20.5235 25.5997 26.8698L25.5996 31.2C25.5996 31.6418 25.9578 32 26.3996 32H31.1956C31.6392 32 31.9999 31.6516 31.9999 31.2081C31.9997 27.2278 32 9.6 32 9.6C32 4.26666 27.7329 2.63135e-06 22.3996 2.63135e-06Z" fill="#000000"/>
</g>
<defs>
<clipPath id="clip0">
<rect width="32" height="32" fill="white"/>
</clipPath>
</defs>
</svg>
